<mxfile host="app.diagrams.net" modified="2024-05-30T19:59:45.662Z" agent="Mozilla/5.0 (Windows NT 10.0; Win64; x64; rv:126.0) Gecko/20100101 Firefox/126.0" etag="Dqaz5wVpI5TVTOfiajqH" version="24.4.10" type="github">
  <diagram name="Page-1" id="7xkurzPf7rh6rWfnBHri">
    <mxGraphModel dx="1605" dy="1283" grid="1" gridSize="10" guides="1" tooltips="1" connect="1" arrows="1" fold="1" page="0" pageScale="1" pageWidth="850" pageHeight="1100" math="0" shadow="0">
      <root>
        <mxCell id="0" />
        <mxCell id="1" parent="0" />
        <mxCell id="4vMNkpyqvwDUSVEXC_gJ-4" value="user" style="rounded=0;whiteSpace=wrap;html=1;" parent="1" vertex="1">
          <mxGeometry x="-50" y="120" width="120" height="60" as="geometry" />
        </mxCell>
        <mxCell id="4vMNkpyqvwDUSVEXC_gJ-7" value="userId" style="ellipse;whiteSpace=wrap;html=1;align=center;fontStyle=4;" parent="1" vertex="1">
          <mxGeometry x="-230" y="190" width="100" height="40" as="geometry" />
        </mxCell>
        <mxCell id="4vMNkpyqvwDUSVEXC_gJ-8" value="" style="endArrow=none;html=1;rounded=0;entryX=0;entryY=0.367;entryDx=0;entryDy=0;entryPerimeter=0;" parent="1" source="4vMNkpyqvwDUSVEXC_gJ-7" target="4vMNkpyqvwDUSVEXC_gJ-4" edge="1">
          <mxGeometry width="50" height="50" relative="1" as="geometry">
            <mxPoint x="-80" y="90" as="sourcePoint" />
            <mxPoint x="-60" y="130" as="targetPoint" />
            <Array as="points" />
          </mxGeometry>
        </mxCell>
        <mxCell id="4vMNkpyqvwDUSVEXC_gJ-21" value="username" style="ellipse;whiteSpace=wrap;html=1;align=center;" parent="1" vertex="1">
          <mxGeometry x="-170" y="20" width="100" height="40" as="geometry" />
        </mxCell>
        <mxCell id="4vMNkpyqvwDUSVEXC_gJ-22" value="" style="endArrow=none;html=1;rounded=0;entryX=0.125;entryY=-0.061;entryDx=0;entryDy=0;entryPerimeter=0;" parent="1" source="4vMNkpyqvwDUSVEXC_gJ-21" target="4vMNkpyqvwDUSVEXC_gJ-4" edge="1">
          <mxGeometry width="50" height="50" relative="1" as="geometry">
            <mxPoint x="9.5" y="80" as="sourcePoint" />
            <mxPoint x="-20" y="110" as="targetPoint" />
          </mxGeometry>
        </mxCell>
        <mxCell id="4vMNkpyqvwDUSVEXC_gJ-23" value="&lt;div&gt;email&lt;/div&gt;" style="ellipse;whiteSpace=wrap;html=1;align=center;" parent="1" vertex="1">
          <mxGeometry x="70" y="30" width="100" height="40" as="geometry" />
        </mxCell>
        <mxCell id="4vMNkpyqvwDUSVEXC_gJ-24" value="" style="endArrow=none;html=1;rounded=0;exitX=0.442;exitY=1.054;exitDx=0;exitDy=0;entryX=0.825;entryY=-0.017;entryDx=0;entryDy=0;entryPerimeter=0;exitPerimeter=0;" parent="1" source="4vMNkpyqvwDUSVEXC_gJ-23" target="4vMNkpyqvwDUSVEXC_gJ-4" edge="1">
          <mxGeometry width="50" height="50" relative="1" as="geometry">
            <mxPoint x="55" y="64" as="sourcePoint" />
            <mxPoint x="36" y="129" as="targetPoint" />
          </mxGeometry>
        </mxCell>
        <mxCell id="4vMNkpyqvwDUSVEXC_gJ-25" value="password" style="ellipse;whiteSpace=wrap;html=1;align=center;" parent="1" vertex="1">
          <mxGeometry x="-10" y="260" width="100" height="40" as="geometry" />
        </mxCell>
        <mxCell id="4vMNkpyqvwDUSVEXC_gJ-26" value="" style="endArrow=none;html=1;rounded=0;exitX=0.35;exitY=-0.025;exitDx=0;exitDy=0;entryX=0.6;entryY=1.1;entryDx=0;entryDy=0;entryPerimeter=0;exitPerimeter=0;" parent="1" source="4vMNkpyqvwDUSVEXC_gJ-25" target="4vMNkpyqvwDUSVEXC_gJ-4" edge="1">
          <mxGeometry width="50" height="50" relative="1" as="geometry">
            <mxPoint x="140" y="70" as="sourcePoint" />
            <mxPoint x="70" y="132" as="targetPoint" />
          </mxGeometry>
        </mxCell>
        <mxCell id="4vMNkpyqvwDUSVEXC_gJ-28" value="about" style="ellipse;whiteSpace=wrap;html=1;align=center;" parent="1" vertex="1">
          <mxGeometry x="-120" y="270" width="100" height="40" as="geometry" />
        </mxCell>
        <mxCell id="4vMNkpyqvwDUSVEXC_gJ-29" value="" style="endArrow=none;html=1;rounded=0;exitX=0.5;exitY=0;exitDx=0;exitDy=0;entryX=0.067;entryY=1.083;entryDx=0;entryDy=0;entryPerimeter=0;" parent="1" source="4vMNkpyqvwDUSVEXC_gJ-28" target="4vMNkpyqvwDUSVEXC_gJ-4" edge="1">
          <mxGeometry width="50" height="50" relative="1" as="geometry">
            <mxPoint x="120" y="110" as="sourcePoint" />
            <mxPoint x="80" y="142" as="targetPoint" />
          </mxGeometry>
        </mxCell>
        <mxCell id="4vMNkpyqvwDUSVEXC_gJ-31" value="post" style="rounded=0;whiteSpace=wrap;html=1;" parent="1" vertex="1">
          <mxGeometry x="465" y="130" width="120" height="60" as="geometry" />
        </mxCell>
        <mxCell id="4vMNkpyqvwDUSVEXC_gJ-32" value="postId" style="ellipse;whiteSpace=wrap;html=1;align=center;fontStyle=4;" parent="1" vertex="1">
          <mxGeometry x="320" y="95" width="100" height="40" as="geometry" />
        </mxCell>
        <mxCell id="4vMNkpyqvwDUSVEXC_gJ-33" value="" style="endArrow=none;html=1;rounded=0;entryX=0.1;entryY=0.017;entryDx=0;entryDy=0;entryPerimeter=0;" parent="1" source="4vMNkpyqvwDUSVEXC_gJ-32" target="4vMNkpyqvwDUSVEXC_gJ-31" edge="1">
          <mxGeometry width="50" height="50" relative="1" as="geometry">
            <mxPoint x="435" y="100" as="sourcePoint" />
            <mxPoint x="455" y="140" as="targetPoint" />
            <Array as="points" />
          </mxGeometry>
        </mxCell>
        <mxCell id="4vMNkpyqvwDUSVEXC_gJ-34" value="title" style="ellipse;whiteSpace=wrap;html=1;align=center;" parent="1" vertex="1">
          <mxGeometry x="295" y="220" width="100" height="40" as="geometry" />
        </mxCell>
        <mxCell id="4vMNkpyqvwDUSVEXC_gJ-35" value="" style="endArrow=none;html=1;rounded=0;exitX=0.43;exitY=-0.075;exitDx=0;exitDy=0;exitPerimeter=0;entryX=0.075;entryY=0.983;entryDx=0;entryDy=0;entryPerimeter=0;" parent="1" source="4vMNkpyqvwDUSVEXC_gJ-34" target="4vMNkpyqvwDUSVEXC_gJ-31" edge="1">
          <mxGeometry width="50" height="50" relative="1" as="geometry">
            <mxPoint x="475" y="80" as="sourcePoint" />
            <mxPoint x="470" y="200" as="targetPoint" />
          </mxGeometry>
        </mxCell>
        <mxCell id="4vMNkpyqvwDUSVEXC_gJ-36" value="description" style="ellipse;whiteSpace=wrap;html=1;align=center;" parent="1" vertex="1">
          <mxGeometry x="360" y="270" width="100" height="40" as="geometry" />
        </mxCell>
        <mxCell id="4vMNkpyqvwDUSVEXC_gJ-37" value="" style="endArrow=none;html=1;rounded=0;entryX=0.383;entryY=1;entryDx=0;entryDy=0;entryPerimeter=0;" parent="1" source="4vMNkpyqvwDUSVEXC_gJ-36" target="4vMNkpyqvwDUSVEXC_gJ-31" edge="1">
          <mxGeometry width="50" height="50" relative="1" as="geometry">
            <mxPoint x="524.5" y="90" as="sourcePoint" />
            <mxPoint x="495" y="120" as="targetPoint" />
          </mxGeometry>
        </mxCell>
        <mxCell id="4vMNkpyqvwDUSVEXC_gJ-38" value="image" style="ellipse;whiteSpace=wrap;html=1;align=center;" parent="1" vertex="1">
          <mxGeometry x="475" y="280" width="100" height="40" as="geometry" />
        </mxCell>
        <mxCell id="4vMNkpyqvwDUSVEXC_gJ-39" value="" style="endArrow=none;html=1;rounded=0;exitX=0.5;exitY=0;exitDx=0;exitDy=0;entryX=0.75;entryY=1;entryDx=0;entryDy=0;" parent="1" source="4vMNkpyqvwDUSVEXC_gJ-38" target="4vMNkpyqvwDUSVEXC_gJ-31" edge="1">
          <mxGeometry width="50" height="50" relative="1" as="geometry">
            <mxPoint x="570" y="74" as="sourcePoint" />
            <mxPoint x="551" y="139" as="targetPoint" />
          </mxGeometry>
        </mxCell>
        <mxCell id="4vMNkpyqvwDUSVEXC_gJ-40" value="userId(FK)" style="ellipse;whiteSpace=wrap;html=1;align=center;" parent="1" vertex="1">
          <mxGeometry x="310" y="40" width="100" height="40" as="geometry" />
        </mxCell>
        <mxCell id="4vMNkpyqvwDUSVEXC_gJ-41" value="" style="endArrow=none;html=1;rounded=0;exitX=0.78;exitY=0.925;exitDx=0;exitDy=0;entryX=0.183;entryY=0;entryDx=0;entryDy=0;entryPerimeter=0;exitPerimeter=0;" parent="1" source="4vMNkpyqvwDUSVEXC_gJ-40" target="4vMNkpyqvwDUSVEXC_gJ-31" edge="1">
          <mxGeometry width="50" height="50" relative="1" as="geometry">
            <mxPoint x="655" y="80" as="sourcePoint" />
            <mxPoint x="585" y="142" as="targetPoint" />
          </mxGeometry>
        </mxCell>
        <mxCell id="4vMNkpyqvwDUSVEXC_gJ-42" value="postypeId(FK)" style="ellipse;whiteSpace=wrap;html=1;align=center;" parent="1" vertex="1">
          <mxGeometry x="615" y="40" width="100" height="40" as="geometry" />
        </mxCell>
        <mxCell id="4vMNkpyqvwDUSVEXC_gJ-43" value="" style="endArrow=none;html=1;rounded=0;exitX=0.34;exitY=0.95;exitDx=0;exitDy=0;entryX=0.825;entryY=0.017;entryDx=0;entryDy=0;entryPerimeter=0;exitPerimeter=0;" parent="1" source="4vMNkpyqvwDUSVEXC_gJ-42" target="4vMNkpyqvwDUSVEXC_gJ-31" edge="1">
          <mxGeometry width="50" height="50" relative="1" as="geometry">
            <mxPoint x="635" y="120" as="sourcePoint" />
            <mxPoint x="595" y="152" as="targetPoint" />
          </mxGeometry>
        </mxCell>
        <mxCell id="4vMNkpyqvwDUSVEXC_gJ-57" value="1" style="text;html=1;align=center;verticalAlign=middle;resizable=0;points=[];autosize=1;strokeColor=none;fillColor=none;" parent="1" vertex="1">
          <mxGeometry x="70" y="128" width="30" height="30" as="geometry" />
        </mxCell>
        <mxCell id="4vMNkpyqvwDUSVEXC_gJ-58" value="n" style="text;html=1;align=center;verticalAlign=middle;resizable=0;points=[];autosize=1;strokeColor=none;fillColor=none;" parent="1" vertex="1">
          <mxGeometry x="430" y="130" width="30" height="30" as="geometry" />
        </mxCell>
        <mxCell id="4vMNkpyqvwDUSVEXC_gJ-59" value="comment" style="rounded=0;whiteSpace=wrap;html=1;" parent="1" vertex="1">
          <mxGeometry x="945" y="130" width="120" height="60" as="geometry" />
        </mxCell>
        <mxCell id="4vMNkpyqvwDUSVEXC_gJ-60" value="commentId" style="ellipse;whiteSpace=wrap;html=1;align=center;fontStyle=4;" parent="1" vertex="1">
          <mxGeometry x="820" y="20" width="100" height="40" as="geometry" />
        </mxCell>
        <mxCell id="4vMNkpyqvwDUSVEXC_gJ-61" value="" style="endArrow=none;html=1;rounded=0;entryX=0.1;entryY=0.017;entryDx=0;entryDy=0;entryPerimeter=0;" parent="1" source="4vMNkpyqvwDUSVEXC_gJ-60" target="4vMNkpyqvwDUSVEXC_gJ-59" edge="1">
          <mxGeometry width="50" height="50" relative="1" as="geometry">
            <mxPoint x="915" y="100" as="sourcePoint" />
            <mxPoint x="935" y="140" as="targetPoint" />
            <Array as="points" />
          </mxGeometry>
        </mxCell>
        <mxCell id="4vMNkpyqvwDUSVEXC_gJ-62" value="commentDate" style="ellipse;whiteSpace=wrap;html=1;align=center;" parent="1" vertex="1">
          <mxGeometry x="830" y="260" width="100" height="40" as="geometry" />
        </mxCell>
        <mxCell id="4vMNkpyqvwDUSVEXC_gJ-63" value="" style="endArrow=none;html=1;rounded=0;exitX=0.43;exitY=-0.075;exitDx=0;exitDy=0;exitPerimeter=0;entryX=0.075;entryY=0.983;entryDx=0;entryDy=0;entryPerimeter=0;" parent="1" source="4vMNkpyqvwDUSVEXC_gJ-62" target="4vMNkpyqvwDUSVEXC_gJ-59" edge="1">
          <mxGeometry width="50" height="50" relative="1" as="geometry">
            <mxPoint x="955" y="80" as="sourcePoint" />
            <mxPoint x="950" y="200" as="targetPoint" />
          </mxGeometry>
        </mxCell>
        <mxCell id="4vMNkpyqvwDUSVEXC_gJ-64" value="userId(FK)" style="ellipse;whiteSpace=wrap;html=1;align=center;" parent="1" vertex="1">
          <mxGeometry x="940" y="260" width="100" height="40" as="geometry" />
        </mxCell>
        <mxCell id="4vMNkpyqvwDUSVEXC_gJ-65" value="" style="endArrow=none;html=1;rounded=0;entryX=0.383;entryY=1;entryDx=0;entryDy=0;entryPerimeter=0;" parent="1" source="4vMNkpyqvwDUSVEXC_gJ-64" target="4vMNkpyqvwDUSVEXC_gJ-59" edge="1">
          <mxGeometry width="50" height="50" relative="1" as="geometry">
            <mxPoint x="1004.5" y="90" as="sourcePoint" />
            <mxPoint x="975" y="120" as="targetPoint" />
          </mxGeometry>
        </mxCell>
        <mxCell id="4vMNkpyqvwDUSVEXC_gJ-66" value="image" style="ellipse;whiteSpace=wrap;html=1;align=center;" parent="1" vertex="1">
          <mxGeometry x="1060" y="260" width="100" height="40" as="geometry" />
        </mxCell>
        <mxCell id="4vMNkpyqvwDUSVEXC_gJ-67" value="" style="endArrow=none;html=1;rounded=0;exitX=0;exitY=0;exitDx=0;exitDy=0;entryX=0.75;entryY=1;entryDx=0;entryDy=0;" parent="1" source="4vMNkpyqvwDUSVEXC_gJ-66" target="4vMNkpyqvwDUSVEXC_gJ-59" edge="1">
          <mxGeometry width="50" height="50" relative="1" as="geometry">
            <mxPoint x="1050" y="74" as="sourcePoint" />
            <mxPoint x="1031" y="139" as="targetPoint" />
          </mxGeometry>
        </mxCell>
        <mxCell id="4vMNkpyqvwDUSVEXC_gJ-68" value="postId(FK)" style="ellipse;whiteSpace=wrap;html=1;align=center;" parent="1" vertex="1">
          <mxGeometry x="940" y="20" width="100" height="40" as="geometry" />
        </mxCell>
        <mxCell id="4vMNkpyqvwDUSVEXC_gJ-69" value="" style="endArrow=none;html=1;rounded=0;exitX=0.5;exitY=1;exitDx=0;exitDy=0;entryX=0.35;entryY=-0.033;entryDx=0;entryDy=0;entryPerimeter=0;" parent="1" source="4vMNkpyqvwDUSVEXC_gJ-68" target="4vMNkpyqvwDUSVEXC_gJ-59" edge="1">
          <mxGeometry width="50" height="50" relative="1" as="geometry">
            <mxPoint x="1135" y="80" as="sourcePoint" />
            <mxPoint x="1065" y="142" as="targetPoint" />
          </mxGeometry>
        </mxCell>
        <mxCell id="4vMNkpyqvwDUSVEXC_gJ-70" value="commentData" style="ellipse;whiteSpace=wrap;html=1;align=center;" parent="1" vertex="1">
          <mxGeometry x="1050" y="20" width="100" height="40" as="geometry" />
        </mxCell>
        <mxCell id="4vMNkpyqvwDUSVEXC_gJ-71" value="" style="endArrow=none;html=1;rounded=0;exitX=0.34;exitY=0.95;exitDx=0;exitDy=0;entryX=0.825;entryY=0.017;entryDx=0;entryDy=0;entryPerimeter=0;exitPerimeter=0;" parent="1" source="4vMNkpyqvwDUSVEXC_gJ-70" target="4vMNkpyqvwDUSVEXC_gJ-59" edge="1">
          <mxGeometry width="50" height="50" relative="1" as="geometry">
            <mxPoint x="1115" y="120" as="sourcePoint" />
            <mxPoint x="1075" y="152" as="targetPoint" />
          </mxGeometry>
        </mxCell>
        <mxCell id="4vMNkpyqvwDUSVEXC_gJ-72" value="postDate" style="ellipse;whiteSpace=wrap;html=1;align=center;" parent="1" vertex="1">
          <mxGeometry x="580" y="260" width="100" height="40" as="geometry" />
        </mxCell>
        <mxCell id="4vMNkpyqvwDUSVEXC_gJ-73" value="" style="endArrow=none;html=1;rounded=0;exitX=0.4;exitY=0;exitDx=0;exitDy=0;entryX=0.925;entryY=1;entryDx=0;entryDy=0;exitPerimeter=0;entryPerimeter=0;" parent="1" source="4vMNkpyqvwDUSVEXC_gJ-72" target="4vMNkpyqvwDUSVEXC_gJ-31" edge="1">
          <mxGeometry width="50" height="50" relative="1" as="geometry">
            <mxPoint x="535" y="290" as="sourcePoint" />
            <mxPoint x="565" y="200" as="targetPoint" />
          </mxGeometry>
        </mxCell>
        <mxCell id="4vMNkpyqvwDUSVEXC_gJ-81" value="Votes" style="rounded=0;whiteSpace=wrap;html=1;" parent="1" vertex="1">
          <mxGeometry x="685" y="390" width="120" height="60" as="geometry" />
        </mxCell>
        <mxCell id="4vMNkpyqvwDUSVEXC_gJ-82" value="postId(FK)" style="ellipse;whiteSpace=wrap;html=1;align=center;" parent="1" vertex="1">
          <mxGeometry x="575" y="480" width="100" height="40" as="geometry" />
        </mxCell>
        <mxCell id="4vMNkpyqvwDUSVEXC_gJ-83" value="" style="endArrow=none;html=1;rounded=0;exitX=0.43;exitY=-0.075;exitDx=0;exitDy=0;exitPerimeter=0;entryX=0.075;entryY=0.983;entryDx=0;entryDy=0;entryPerimeter=0;" parent="1" source="4vMNkpyqvwDUSVEXC_gJ-82" target="4vMNkpyqvwDUSVEXC_gJ-81" edge="1">
          <mxGeometry width="50" height="50" relative="1" as="geometry">
            <mxPoint x="695" y="340" as="sourcePoint" />
            <mxPoint x="690" y="460" as="targetPoint" />
          </mxGeometry>
        </mxCell>
        <mxCell id="4vMNkpyqvwDUSVEXC_gJ-84" value="userId(FK)" style="ellipse;whiteSpace=wrap;html=1;align=center;" parent="1" vertex="1">
          <mxGeometry x="770" y="490" width="100" height="40" as="geometry" />
        </mxCell>
        <mxCell id="4vMNkpyqvwDUSVEXC_gJ-85" value="" style="endArrow=none;html=1;rounded=0;entryX=0.868;entryY=0.981;entryDx=0;entryDy=0;entryPerimeter=0;" parent="1" source="4vMNkpyqvwDUSVEXC_gJ-84" target="4vMNkpyqvwDUSVEXC_gJ-81" edge="1">
          <mxGeometry width="50" height="50" relative="1" as="geometry">
            <mxPoint x="744.5" y="350" as="sourcePoint" />
            <mxPoint x="715" y="380" as="targetPoint" />
          </mxGeometry>
        </mxCell>
        <mxCell id="4vMNkpyqvwDUSVEXC_gJ-93" value="" style="endArrow=none;html=1;rounded=0;strokeColor=default;align=center;verticalAlign=middle;fontFamily=Helvetica;fontSize=11;fontColor=default;labelBackgroundColor=default;edgeStyle=orthogonalEdgeStyle;exitX=0;exitY=0.5;exitDx=0;exitDy=0;entryX=0.992;entryY=0.4;entryDx=0;entryDy=0;entryPerimeter=0;" parent="1" source="4vMNkpyqvwDUSVEXC_gJ-101" target="4vMNkpyqvwDUSVEXC_gJ-31" edge="1">
          <mxGeometry width="50" height="50" relative="1" as="geometry">
            <mxPoint x="550" y="380" as="sourcePoint" />
            <mxPoint x="580" y="150" as="targetPoint" />
          </mxGeometry>
        </mxCell>
        <mxCell id="4vMNkpyqvwDUSVEXC_gJ-97" value="" style="endArrow=none;html=1;rounded=0;strokeColor=default;align=center;verticalAlign=middle;fontFamily=Helvetica;fontSize=11;fontColor=default;labelBackgroundColor=default;edgeStyle=orthogonalEdgeStyle;exitX=1;exitY=0.5;exitDx=0;exitDy=0;entryX=0;entryY=0.5;entryDx=0;entryDy=0;" parent="1" source="4vMNkpyqvwDUSVEXC_gJ-54" target="4vMNkpyqvwDUSVEXC_gJ-31" edge="1">
          <mxGeometry width="50" height="50" relative="1" as="geometry">
            <mxPoint x="550" y="380" as="sourcePoint" />
            <mxPoint x="600" y="330" as="targetPoint" />
            <Array as="points">
              <mxPoint x="465" y="158" />
            </Array>
          </mxGeometry>
        </mxCell>
        <mxCell id="4vMNkpyqvwDUSVEXC_gJ-98" value="" style="endArrow=none;html=1;rounded=0;strokeColor=default;align=center;verticalAlign=middle;fontFamily=Helvetica;fontSize=11;fontColor=default;labelBackgroundColor=default;edgeStyle=orthogonalEdgeStyle;exitX=1.017;exitY=0.633;exitDx=0;exitDy=0;exitPerimeter=0;entryX=0;entryY=0.5;entryDx=0;entryDy=0;" parent="1" source="4vMNkpyqvwDUSVEXC_gJ-4" target="4vMNkpyqvwDUSVEXC_gJ-54" edge="1">
          <mxGeometry width="50" height="50" relative="1" as="geometry">
            <mxPoint x="72" y="158" as="sourcePoint" />
            <mxPoint x="465" y="160" as="targetPoint" />
          </mxGeometry>
        </mxCell>
        <mxCell id="4vMNkpyqvwDUSVEXC_gJ-54" value="can" style="shape=rhombus;perimeter=rhombusPerimeter;whiteSpace=wrap;html=1;align=center;" parent="1" vertex="1">
          <mxGeometry x="190" y="128" width="120" height="60" as="geometry" />
        </mxCell>
        <mxCell id="4vMNkpyqvwDUSVEXC_gJ-99" value="1" style="text;html=1;align=center;verticalAlign=middle;resizable=0;points=[];autosize=1;strokeColor=none;fillColor=none;fontFamily=Helvetica;fontSize=11;fontColor=default;labelBackgroundColor=default;" parent="1" vertex="1">
          <mxGeometry x="580" y="145" width="30" height="30" as="geometry" />
        </mxCell>
        <mxCell id="4vMNkpyqvwDUSVEXC_gJ-100" value="n" style="text;html=1;align=center;verticalAlign=middle;resizable=0;points=[];autosize=1;strokeColor=none;fillColor=none;fontFamily=Helvetica;fontSize=11;fontColor=default;labelBackgroundColor=default;" parent="1" vertex="1">
          <mxGeometry x="760" y="360" width="30" height="30" as="geometry" />
        </mxCell>
        <mxCell id="4vMNkpyqvwDUSVEXC_gJ-102" value="" style="endArrow=none;html=1;rounded=0;strokeColor=default;align=center;verticalAlign=middle;fontFamily=Helvetica;fontSize=11;fontColor=default;labelBackgroundColor=default;edgeStyle=orthogonalEdgeStyle;entryX=1;entryY=0.5;entryDx=0;entryDy=0;exitX=0.25;exitY=0;exitDx=0;exitDy=0;" parent="1" source="4vMNkpyqvwDUSVEXC_gJ-81" target="4vMNkpyqvwDUSVEXC_gJ-101" edge="1">
          <mxGeometry width="50" height="50" relative="1" as="geometry">
            <mxPoint x="715" y="390" as="sourcePoint" />
            <mxPoint x="585" y="160" as="targetPoint" />
            <Array as="points">
              <mxPoint x="760" y="390" />
              <mxPoint x="760" y="160" />
            </Array>
          </mxGeometry>
        </mxCell>
        <mxCell id="4vMNkpyqvwDUSVEXC_gJ-101" value="have" style="shape=rhombus;perimeter=rhombusPerimeter;whiteSpace=wrap;html=1;align=center;" parent="1" vertex="1">
          <mxGeometry x="640" y="120" width="110" height="70" as="geometry" />
        </mxCell>
        <mxCell id="4vMNkpyqvwDUSVEXC_gJ-103" value="" style="endArrow=none;html=1;rounded=0;strokeColor=default;align=center;verticalAlign=middle;fontFamily=Helvetica;fontSize=11;fontColor=default;labelBackgroundColor=default;edgeStyle=orthogonalEdgeStyle;exitX=1;exitY=0.5;exitDx=0;exitDy=0;" parent="1" source="4vMNkpyqvwDUSVEXC_gJ-101" edge="1">
          <mxGeometry width="50" height="50" relative="1" as="geometry">
            <mxPoint x="550" y="380" as="sourcePoint" />
            <mxPoint x="940" y="160" as="targetPoint" />
          </mxGeometry>
        </mxCell>
        <mxCell id="4vMNkpyqvwDUSVEXC_gJ-104" value="n" style="text;html=1;align=center;verticalAlign=middle;resizable=0;points=[];autosize=1;strokeColor=none;fillColor=none;fontFamily=Helvetica;fontSize=11;fontColor=default;labelBackgroundColor=default;" parent="1" vertex="1">
          <mxGeometry x="920" y="158" width="30" height="30" as="geometry" />
        </mxCell>
        <mxCell id="4vMNkpyqvwDUSVEXC_gJ-106" value="Comment Upvotes" style="rounded=0;whiteSpace=wrap;html=1;" parent="1" vertex="1">
          <mxGeometry x="1155" y="380" width="120" height="60" as="geometry" />
        </mxCell>
        <mxCell id="4vMNkpyqvwDUSVEXC_gJ-107" value="commentId(FK)" style="ellipse;whiteSpace=wrap;html=1;align=center;" parent="1" vertex="1">
          <mxGeometry x="1110" y="470" width="100" height="40" as="geometry" />
        </mxCell>
        <mxCell id="4vMNkpyqvwDUSVEXC_gJ-108" value="" style="endArrow=none;html=1;rounded=0;exitX=0.43;exitY=-0.075;exitDx=0;exitDy=0;exitPerimeter=0;entryX=0.075;entryY=0.983;entryDx=0;entryDy=0;entryPerimeter=0;" parent="1" source="4vMNkpyqvwDUSVEXC_gJ-107" target="4vMNkpyqvwDUSVEXC_gJ-106" edge="1">
          <mxGeometry width="50" height="50" relative="1" as="geometry">
            <mxPoint x="1165" y="330" as="sourcePoint" />
            <mxPoint x="1160" y="450" as="targetPoint" />
          </mxGeometry>
        </mxCell>
        <mxCell id="4vMNkpyqvwDUSVEXC_gJ-109" value="userId(FK)" style="ellipse;whiteSpace=wrap;html=1;align=center;" parent="1" vertex="1">
          <mxGeometry x="1230" y="470" width="100" height="40" as="geometry" />
        </mxCell>
        <mxCell id="4vMNkpyqvwDUSVEXC_gJ-110" value="" style="endArrow=none;html=1;rounded=0;entryX=0.9;entryY=1.083;entryDx=0;entryDy=0;entryPerimeter=0;" parent="1" source="4vMNkpyqvwDUSVEXC_gJ-109" target="4vMNkpyqvwDUSVEXC_gJ-106" edge="1">
          <mxGeometry width="50" height="50" relative="1" as="geometry">
            <mxPoint x="1214.5" y="340" as="sourcePoint" />
            <mxPoint x="1185" y="370" as="targetPoint" />
          </mxGeometry>
        </mxCell>
        <mxCell id="4vMNkpyqvwDUSVEXC_gJ-111" value="" style="endArrow=none;html=1;rounded=0;strokeColor=default;align=center;verticalAlign=middle;fontFamily=Helvetica;fontSize=11;fontColor=default;labelBackgroundColor=default;edgeStyle=orthogonalEdgeStyle;exitX=0.5;exitY=0;exitDx=0;exitDy=0;entryX=1;entryY=0.5;entryDx=0;entryDy=0;" parent="1" source="4vMNkpyqvwDUSVEXC_gJ-106" target="4vMNkpyqvwDUSVEXC_gJ-59" edge="1">
          <mxGeometry width="50" height="50" relative="1" as="geometry">
            <mxPoint x="810" y="360" as="sourcePoint" />
            <mxPoint x="860" y="310" as="targetPoint" />
          </mxGeometry>
        </mxCell>
        <mxCell id="4vMNkpyqvwDUSVEXC_gJ-112" value="have" style="shape=rhombus;perimeter=rhombusPerimeter;whiteSpace=wrap;html=1;align=center;" parent="1" vertex="1">
          <mxGeometry x="1160" y="190" width="110" height="70" as="geometry" />
        </mxCell>
        <mxCell id="4vMNkpyqvwDUSVEXC_gJ-113" value="1" style="text;html=1;align=center;verticalAlign=middle;resizable=0;points=[];autosize=1;strokeColor=none;fillColor=none;fontFamily=Helvetica;fontSize=11;fontColor=default;labelBackgroundColor=default;" parent="1" vertex="1">
          <mxGeometry x="1065" y="158" width="30" height="30" as="geometry" />
        </mxCell>
        <mxCell id="4vMNkpyqvwDUSVEXC_gJ-114" value="n" style="text;html=1;align=center;verticalAlign=middle;resizable=0;points=[];autosize=1;strokeColor=none;fillColor=none;fontFamily=Helvetica;fontSize=11;fontColor=default;labelBackgroundColor=default;" parent="1" vertex="1">
          <mxGeometry x="1220" y="350" width="30" height="30" as="geometry" />
        </mxCell>
        <mxCell id="4vMNkpyqvwDUSVEXC_gJ-115" value="voteDate" style="ellipse;whiteSpace=wrap;html=1;align=center;" parent="1" vertex="1">
          <mxGeometry x="540" y="420" width="100" height="40" as="geometry" />
        </mxCell>
        <mxCell id="4vMNkpyqvwDUSVEXC_gJ-118" value="" style="endArrow=none;html=1;rounded=0;exitX=0;exitY=0.75;exitDx=0;exitDy=0;entryX=0.96;entryY=0.25;entryDx=0;entryDy=0;entryPerimeter=0;" parent="1" source="4vMNkpyqvwDUSVEXC_gJ-81" target="4vMNkpyqvwDUSVEXC_gJ-115" edge="1">
          <mxGeometry width="50" height="50" relative="1" as="geometry">
            <mxPoint x="693" y="487" as="sourcePoint" />
            <mxPoint x="650" y="450" as="targetPoint" />
          </mxGeometry>
        </mxCell>
        <mxCell id="4vMNkpyqvwDUSVEXC_gJ-119" value="timeStamp" style="ellipse;whiteSpace=wrap;html=1;align=center;" parent="1" vertex="1">
          <mxGeometry x="1007.5" y="425" width="100" height="40" as="geometry" />
        </mxCell>
        <mxCell id="4vMNkpyqvwDUSVEXC_gJ-120" value="" style="endArrow=none;html=1;rounded=0;exitX=0;exitY=0.5;exitDx=0;exitDy=0;entryX=0.96;entryY=0.25;entryDx=0;entryDy=0;entryPerimeter=0;" parent="1" source="4vMNkpyqvwDUSVEXC_gJ-106" target="4vMNkpyqvwDUSVEXC_gJ-119" edge="1">
          <mxGeometry width="50" height="50" relative="1" as="geometry">
            <mxPoint x="1152.5" y="420" as="sourcePoint" />
            <mxPoint x="1117.5" y="435" as="targetPoint" />
          </mxGeometry>
        </mxCell>
        <mxCell id="4vMNkpyqvwDUSVEXC_gJ-130" value="1" style="text;html=1;align=center;verticalAlign=middle;resizable=0;points=[];autosize=1;strokeColor=none;fillColor=none;fontFamily=Helvetica;fontSize=11;fontColor=default;labelBackgroundColor=default;" parent="1" vertex="1">
          <mxGeometry x="65" y="178" width="30" height="30" as="geometry" />
        </mxCell>
        <mxCell id="4vMNkpyqvwDUSVEXC_gJ-131" value="n" style="text;html=1;align=center;verticalAlign=middle;resizable=0;points=[];autosize=1;strokeColor=none;fillColor=none;fontFamily=Helvetica;fontSize=11;fontColor=default;labelBackgroundColor=default;" parent="1" vertex="1">
          <mxGeometry x="655" y="370" width="30" height="30" as="geometry" />
        </mxCell>
        <mxCell id="4vMNkpyqvwDUSVEXC_gJ-134" value="" style="endArrow=none;html=1;rounded=0;strokeColor=default;align=center;verticalAlign=middle;fontFamily=Helvetica;fontSize=11;fontColor=default;labelBackgroundColor=default;edgeStyle=orthogonalEdgeStyle;exitX=1;exitY=1;exitDx=0;exitDy=0;entryX=0.5;entryY=0;entryDx=0;entryDy=0;" parent="1" source="4vMNkpyqvwDUSVEXC_gJ-4" target="4vMNkpyqvwDUSVEXC_gJ-132" edge="1">
          <mxGeometry width="50" height="50" relative="1" as="geometry">
            <mxPoint x="70" y="180" as="sourcePoint" />
            <mxPoint x="685" y="405" as="targetPoint" />
            <Array as="points">
              <mxPoint x="150" y="180" />
            </Array>
          </mxGeometry>
        </mxCell>
        <mxCell id="4vMNkpyqvwDUSVEXC_gJ-132" value="can" style="shape=rhombus;perimeter=rhombusPerimeter;whiteSpace=wrap;html=1;align=center;" parent="1" vertex="1">
          <mxGeometry x="90" y="365" width="120" height="60" as="geometry" />
        </mxCell>
        <mxCell id="4vMNkpyqvwDUSVEXC_gJ-135" value="" style="endArrow=none;html=1;rounded=0;strokeColor=default;align=center;verticalAlign=middle;fontFamily=Helvetica;fontSize=11;fontColor=default;labelBackgroundColor=default;edgeStyle=orthogonalEdgeStyle;exitX=1;exitY=0.5;exitDx=0;exitDy=0;entryX=0;entryY=0.5;entryDx=0;entryDy=0;" parent="1" source="4vMNkpyqvwDUSVEXC_gJ-132" target="4vMNkpyqvwDUSVEXC_gJ-81" edge="1">
          <mxGeometry width="50" height="50" relative="1" as="geometry">
            <mxPoint x="640" y="350" as="sourcePoint" />
            <mxPoint x="690" y="300" as="targetPoint" />
            <Array as="points">
              <mxPoint x="685" y="395" />
            </Array>
          </mxGeometry>
        </mxCell>
        <mxCell id="4vMNkpyqvwDUSVEXC_gJ-136" value="" style="endArrow=none;html=1;rounded=0;strokeColor=default;align=center;verticalAlign=middle;fontFamily=Helvetica;fontSize=11;fontColor=default;labelBackgroundColor=default;edgeStyle=orthogonalEdgeStyle;entryX=0;entryY=0.25;entryDx=0;entryDy=0;" parent="1" target="4vMNkpyqvwDUSVEXC_gJ-106" edge="1">
          <mxGeometry width="50" height="50" relative="1" as="geometry">
            <mxPoint x="150" y="430" as="sourcePoint" />
            <mxPoint x="500" y="340" as="targetPoint" />
            <Array as="points">
              <mxPoint x="150" y="890" />
              <mxPoint x="950" y="890" />
              <mxPoint x="950" y="395" />
            </Array>
          </mxGeometry>
        </mxCell>
        <mxCell id="4vMNkpyqvwDUSVEXC_gJ-137" value="n" style="text;html=1;align=center;verticalAlign=middle;resizable=0;points=[];autosize=1;strokeColor=none;fillColor=none;fontFamily=Helvetica;fontSize=11;fontColor=default;labelBackgroundColor=default;" parent="1" vertex="1">
          <mxGeometry x="1130" y="365" width="30" height="30" as="geometry" />
        </mxCell>
        <mxCell id="4vMNkpyqvwDUSVEXC_gJ-138" value="" style="endArrow=none;html=1;rounded=0;strokeColor=default;align=center;verticalAlign=middle;fontFamily=Helvetica;fontSize=11;fontColor=default;labelBackgroundColor=default;edgeStyle=orthogonalEdgeStyle;entryX=1;entryY=0.25;entryDx=0;entryDy=0;exitX=0.5;exitY=0;exitDx=0;exitDy=0;" parent="1" source="4vMNkpyqvwDUSVEXC_gJ-54" edge="1">
          <mxGeometry width="50" height="50" relative="1" as="geometry">
            <mxPoint x="250" y="30" as="sourcePoint" />
            <mxPoint x="1065" y="147" as="targetPoint" />
            <Array as="points">
              <mxPoint x="250" y="-600" />
              <mxPoint x="1321" y="-600" />
              <mxPoint x="1321" y="147" />
            </Array>
          </mxGeometry>
        </mxCell>
        <mxCell id="4vMNkpyqvwDUSVEXC_gJ-139" value="n" style="text;html=1;align=center;verticalAlign=middle;resizable=0;points=[];autosize=1;strokeColor=none;fillColor=none;fontFamily=Helvetica;fontSize=11;fontColor=default;labelBackgroundColor=default;" parent="1" vertex="1">
          <mxGeometry x="1060" y="110" width="30" height="30" as="geometry" />
        </mxCell>
        <mxCell id="4vMNkpyqvwDUSVEXC_gJ-140" value="1" style="text;html=1;align=center;verticalAlign=middle;resizable=0;points=[];autosize=1;strokeColor=none;fillColor=none;fontFamily=Helvetica;fontSize=11;fontColor=default;labelBackgroundColor=default;" parent="1" vertex="1">
          <mxGeometry x="255" y="100" width="30" height="30" as="geometry" />
        </mxCell>
        <mxCell id="4vMNkpyqvwDUSVEXC_gJ-142" value="&lt;u&gt;voteId&lt;br&gt;&lt;/u&gt;" style="ellipse;whiteSpace=wrap;html=1;align=center;" parent="1" vertex="1">
          <mxGeometry x="820" y="370" width="100" height="40" as="geometry" />
        </mxCell>
        <mxCell id="4vMNkpyqvwDUSVEXC_gJ-143" value="" style="endArrow=none;html=1;rounded=0;entryX=1;entryY=0.25;entryDx=0;entryDy=0;" parent="1" source="4vMNkpyqvwDUSVEXC_gJ-142" target="4vMNkpyqvwDUSVEXC_gJ-81" edge="1">
          <mxGeometry width="50" height="50" relative="1" as="geometry">
            <mxPoint x="799.5" y="282.5" as="sourcePoint" />
            <mxPoint x="848" y="387.5" as="targetPoint" />
          </mxGeometry>
        </mxCell>
        <mxCell id="4vMNkpyqvwDUSVEXC_gJ-144" value="voteTypeId(FK)" style="ellipse;whiteSpace=wrap;html=1;align=center;" parent="1" vertex="1">
          <mxGeometry x="830" y="450" width="100" height="40" as="geometry" />
        </mxCell>
        <mxCell id="4vMNkpyqvwDUSVEXC_gJ-145" value="" style="endArrow=none;html=1;rounded=0;entryX=1;entryY=0.75;entryDx=0;entryDy=0;" parent="1" source="4vMNkpyqvwDUSVEXC_gJ-144" target="4vMNkpyqvwDUSVEXC_gJ-81" edge="1">
          <mxGeometry width="50" height="50" relative="1" as="geometry">
            <mxPoint x="814.5" y="320" as="sourcePoint" />
            <mxPoint x="863" y="425" as="targetPoint" />
          </mxGeometry>
        </mxCell>
        <mxCell id="4vMNkpyqvwDUSVEXC_gJ-146" value="VoteType" style="rounded=0;whiteSpace=wrap;html=1;" parent="1" vertex="1">
          <mxGeometry x="675" y="680" width="120" height="60" as="geometry" />
        </mxCell>
        <mxCell id="4vMNkpyqvwDUSVEXC_gJ-147" value="voteTypeId" style="ellipse;whiteSpace=wrap;html=1;align=center;" parent="1" vertex="1">
          <mxGeometry x="530" y="680" width="100" height="40" as="geometry" />
        </mxCell>
        <mxCell id="4vMNkpyqvwDUSVEXC_gJ-148" value="" style="endArrow=none;html=1;rounded=0;exitX=1;exitY=0.5;exitDx=0;exitDy=0;entryX=0;entryY=0.5;entryDx=0;entryDy=0;" parent="1" source="4vMNkpyqvwDUSVEXC_gJ-147" target="4vMNkpyqvwDUSVEXC_gJ-146" edge="1">
          <mxGeometry width="50" height="50" relative="1" as="geometry">
            <mxPoint x="597" y="660" as="sourcePoint" />
            <mxPoint x="673" y="632" as="targetPoint" />
          </mxGeometry>
        </mxCell>
        <mxCell id="4vMNkpyqvwDUSVEXC_gJ-149" value="voteType" style="ellipse;whiteSpace=wrap;html=1;align=center;" parent="1" vertex="1">
          <mxGeometry x="830" y="680" width="100" height="40" as="geometry" />
        </mxCell>
        <mxCell id="4vMNkpyqvwDUSVEXC_gJ-150" value="" style="endArrow=none;html=1;rounded=0;exitX=0.986;exitY=0.397;exitDx=0;exitDy=0;entryX=0;entryY=0.5;entryDx=0;entryDy=0;exitPerimeter=0;" parent="1" source="4vMNkpyqvwDUSVEXC_gJ-146" target="4vMNkpyqvwDUSVEXC_gJ-149" edge="1">
          <mxGeometry width="50" height="50" relative="1" as="geometry">
            <mxPoint x="795" y="690" as="sourcePoint" />
            <mxPoint x="830" y="690" as="targetPoint" />
          </mxGeometry>
        </mxCell>
        <mxCell id="4vMNkpyqvwDUSVEXC_gJ-151" value="" style="endArrow=none;html=1;rounded=0;strokeColor=default;align=center;verticalAlign=middle;fontFamily=Helvetica;fontSize=11;fontColor=default;labelBackgroundColor=default;edgeStyle=orthogonalEdgeStyle;exitX=0.5;exitY=0;exitDx=0;exitDy=0;entryX=0.424;entryY=1.036;entryDx=0;entryDy=0;entryPerimeter=0;" parent="1" source="4vMNkpyqvwDUSVEXC_gJ-152" target="4vMNkpyqvwDUSVEXC_gJ-81" edge="1">
          <mxGeometry width="50" height="50" relative="1" as="geometry">
            <mxPoint x="650" y="490" as="sourcePoint" />
            <mxPoint x="700" y="440" as="targetPoint" />
          </mxGeometry>
        </mxCell>
        <mxCell id="4vMNkpyqvwDUSVEXC_gJ-153" value="" style="endArrow=none;html=1;rounded=0;strokeColor=default;align=center;verticalAlign=middle;fontFamily=Helvetica;fontSize=11;fontColor=default;labelBackgroundColor=default;edgeStyle=orthogonalEdgeStyle;exitX=0.5;exitY=0;exitDx=0;exitDy=0;entryX=0.5;entryY=1;entryDx=0;entryDy=0;" parent="1" source="4vMNkpyqvwDUSVEXC_gJ-146" target="4vMNkpyqvwDUSVEXC_gJ-152" edge="1">
          <mxGeometry width="50" height="50" relative="1" as="geometry">
            <mxPoint x="735" y="590" as="sourcePoint" />
            <mxPoint x="736" y="452" as="targetPoint" />
            <Array as="points">
              <mxPoint x="735" y="570" />
            </Array>
          </mxGeometry>
        </mxCell>
        <mxCell id="4vMNkpyqvwDUSVEXC_gJ-152" value="Can be" style="shape=rhombus;perimeter=rhombusPerimeter;whiteSpace=wrap;html=1;align=center;" parent="1" vertex="1">
          <mxGeometry x="680" y="530" width="110" height="70" as="geometry" />
        </mxCell>
        <mxCell id="4vMNkpyqvwDUSVEXC_gJ-154" value="n" style="text;html=1;align=center;verticalAlign=middle;resizable=0;points=[];autosize=1;strokeColor=none;fillColor=none;fontFamily=Helvetica;fontSize=11;fontColor=default;labelBackgroundColor=default;" parent="1" vertex="1">
          <mxGeometry x="735" y="650" width="30" height="30" as="geometry" />
        </mxCell>
        <mxCell id="4vMNkpyqvwDUSVEXC_gJ-156" value="1" style="text;html=1;align=center;verticalAlign=middle;resizable=0;points=[];autosize=1;strokeColor=none;fillColor=none;fontFamily=Helvetica;fontSize=11;fontColor=default;labelBackgroundColor=default;" parent="1" vertex="1">
          <mxGeometry x="735" y="455" width="30" height="30" as="geometry" />
        </mxCell>
        <mxCell id="4vMNkpyqvwDUSVEXC_gJ-157" value="post_type" style="rounded=0;whiteSpace=wrap;html=1;" parent="1" vertex="1">
          <mxGeometry x="830" y="-270" width="120" height="60" as="geometry" />
        </mxCell>
        <mxCell id="4vMNkpyqvwDUSVEXC_gJ-158" value="&lt;div&gt;&lt;u&gt;id&lt;/u&gt;&lt;/div&gt;" style="ellipse;whiteSpace=wrap;html=1;align=center;" parent="1" vertex="1">
          <mxGeometry x="750" y="-370" width="100" height="40" as="geometry" />
        </mxCell>
        <mxCell id="4vMNkpyqvwDUSVEXC_gJ-159" value="" style="endArrow=none;html=1;rounded=0;entryX=0.183;entryY=0.017;entryDx=0;entryDy=0;entryPerimeter=0;" parent="1" source="4vMNkpyqvwDUSVEXC_gJ-158" target="4vMNkpyqvwDUSVEXC_gJ-157" edge="1">
          <mxGeometry width="50" height="50" relative="1" as="geometry">
            <mxPoint x="658" y="-240" as="sourcePoint" />
            <mxPoint x="655" y="-172" as="targetPoint" />
          </mxGeometry>
        </mxCell>
        <mxCell id="4vMNkpyqvwDUSVEXC_gJ-160" value="typeName" style="ellipse;whiteSpace=wrap;html=1;align=center;" parent="1" vertex="1">
          <mxGeometry x="870" y="-370" width="100" height="40" as="geometry" />
        </mxCell>
        <mxCell id="4vMNkpyqvwDUSVEXC_gJ-161" value="" style="endArrow=none;html=1;rounded=0;entryX=0.817;entryY=-0.017;entryDx=0;entryDy=0;entryPerimeter=0;" parent="1" source="4vMNkpyqvwDUSVEXC_gJ-160" target="4vMNkpyqvwDUSVEXC_gJ-157" edge="1">
          <mxGeometry width="50" height="50" relative="1" as="geometry">
            <mxPoint x="763" y="-241" as="sourcePoint" />
            <mxPoint x="767" y="-200" as="targetPoint" />
          </mxGeometry>
        </mxCell>
        <mxCell id="4vMNkpyqvwDUSVEXC_gJ-162" value="" style="endArrow=none;html=1;rounded=0;strokeColor=default;align=center;verticalAlign=middle;fontFamily=Helvetica;fontSize=11;fontColor=default;labelBackgroundColor=default;edgeStyle=orthogonalEdgeStyle;exitX=0.5;exitY=0;exitDx=0;exitDy=0;entryX=0.442;entryY=1.017;entryDx=0;entryDy=0;entryPerimeter=0;" parent="1" source="4vMNkpyqvwDUSVEXC_gJ-163" target="4vMNkpyqvwDUSVEXC_gJ-157" edge="1">
          <mxGeometry width="50" height="50" relative="1" as="geometry">
            <mxPoint x="730" y="-70" as="sourcePoint" />
            <mxPoint x="700" y="-130" as="targetPoint" />
            <Array as="points">
              <mxPoint x="830" y="-139" />
              <mxPoint x="883" y="-139" />
            </Array>
          </mxGeometry>
        </mxCell>
        <mxCell id="4vMNkpyqvwDUSVEXC_gJ-164" value="" style="endArrow=none;html=1;rounded=0;strokeColor=default;align=center;verticalAlign=middle;fontFamily=Helvetica;fontSize=11;fontColor=default;labelBackgroundColor=default;edgeStyle=orthogonalEdgeStyle;exitX=0.067;exitY=0.233;exitDx=0;exitDy=0;entryX=0.442;entryY=1.017;entryDx=0;entryDy=0;entryPerimeter=0;exitPerimeter=0;" parent="1" source="4vMNkpyqvwDUSVEXC_gJ-99" target="4vMNkpyqvwDUSVEXC_gJ-163" edge="1">
          <mxGeometry width="50" height="50" relative="1" as="geometry">
            <mxPoint x="620" y="20" as="sourcePoint" />
            <mxPoint x="693" y="-139" as="targetPoint" />
            <Array as="points">
              <mxPoint x="587" y="137" />
              <mxPoint x="630" y="137" />
              <mxPoint x="630" y="100" />
              <mxPoint x="730" y="100" />
              <mxPoint x="730" y="1" />
              <mxPoint x="823" y="1" />
            </Array>
          </mxGeometry>
        </mxCell>
        <mxCell id="4vMNkpyqvwDUSVEXC_gJ-163" value="of" style="shape=rhombus;perimeter=rhombusPerimeter;whiteSpace=wrap;html=1;align=center;" parent="1" vertex="1">
          <mxGeometry x="770" y="-110" width="120" height="60" as="geometry" />
        </mxCell>
        <mxCell id="4vMNkpyqvwDUSVEXC_gJ-165" value="n" style="text;html=1;align=center;verticalAlign=middle;resizable=0;points=[];autosize=1;strokeColor=none;fillColor=none;fontFamily=Helvetica;fontSize=11;fontColor=default;labelBackgroundColor=default;" parent="1" vertex="1">
          <mxGeometry x="585" y="110" width="30" height="30" as="geometry" />
        </mxCell>
        <mxCell id="4vMNkpyqvwDUSVEXC_gJ-168" value="tag" style="rounded=0;whiteSpace=wrap;html=1;" parent="1" vertex="1">
          <mxGeometry x="410" y="-410" width="120" height="60" as="geometry" />
        </mxCell>
        <mxCell id="4vMNkpyqvwDUSVEXC_gJ-170" value="&lt;div&gt;&lt;u&gt;id&lt;/u&gt;&lt;/div&gt;" style="ellipse;whiteSpace=wrap;html=1;align=center;" parent="1" vertex="1">
          <mxGeometry x="275" y="-500" width="100" height="40" as="geometry" />
        </mxCell>
        <mxCell id="4vMNkpyqvwDUSVEXC_gJ-172" value="" style="endArrow=none;html=1;rounded=0;entryX=0.183;entryY=-0.033;entryDx=0;entryDy=0;entryPerimeter=0;" parent="1" source="4vMNkpyqvwDUSVEXC_gJ-170" target="4vMNkpyqvwDUSVEXC_gJ-168" edge="1">
          <mxGeometry width="50" height="50" relative="1" as="geometry">
            <mxPoint x="400" y="-472" as="sourcePoint" />
            <mxPoint x="440" y="-410" as="targetPoint" />
          </mxGeometry>
        </mxCell>
        <mxCell id="4vMNkpyqvwDUSVEXC_gJ-174" value="tagName" style="ellipse;whiteSpace=wrap;html=1;align=center;" parent="1" vertex="1">
          <mxGeometry x="400" y="-510" width="100" height="40" as="geometry" />
        </mxCell>
        <mxCell id="4vMNkpyqvwDUSVEXC_gJ-175" value="" style="endArrow=none;html=1;rounded=0;entryX=0.425;entryY=-0.033;entryDx=0;entryDy=0;entryPerimeter=0;" parent="1" source="4vMNkpyqvwDUSVEXC_gJ-174" target="4vMNkpyqvwDUSVEXC_gJ-168" edge="1">
          <mxGeometry width="50" height="50" relative="1" as="geometry">
            <mxPoint x="520" y="-472" as="sourcePoint" />
            <mxPoint x="465" y="-420" as="targetPoint" />
          </mxGeometry>
        </mxCell>
        <mxCell id="4vMNkpyqvwDUSVEXC_gJ-176" value="description" style="ellipse;whiteSpace=wrap;html=1;align=center;" parent="1" vertex="1">
          <mxGeometry x="530" y="-510" width="100" height="40" as="geometry" />
        </mxCell>
        <mxCell id="4vMNkpyqvwDUSVEXC_gJ-177" value="" style="endArrow=none;html=1;rounded=0;entryX=0.892;entryY=-0.017;entryDx=0;entryDy=0;entryPerimeter=0;" parent="1" source="4vMNkpyqvwDUSVEXC_gJ-176" target="4vMNkpyqvwDUSVEXC_gJ-168" edge="1">
          <mxGeometry width="50" height="50" relative="1" as="geometry">
            <mxPoint x="630" y="-462" as="sourcePoint" />
            <mxPoint x="662" y="-402" as="targetPoint" />
          </mxGeometry>
        </mxCell>
        <mxCell id="4vMNkpyqvwDUSVEXC_gJ-178" value="post_tag" style="rounded=0;whiteSpace=wrap;html=1;" parent="1" vertex="1">
          <mxGeometry x="420" y="-190" width="120" height="60" as="geometry" />
        </mxCell>
        <mxCell id="4vMNkpyqvwDUSVEXC_gJ-179" value="post_id(FK)" style="ellipse;whiteSpace=wrap;html=1;align=center;" parent="1" vertex="1">
          <mxGeometry x="295" y="-180" width="100" height="40" as="geometry" />
        </mxCell>
        <mxCell id="4vMNkpyqvwDUSVEXC_gJ-180" value="" style="endArrow=none;html=1;rounded=0;exitX=1;exitY=0.5;exitDx=0;exitDy=0;" parent="1" source="4vMNkpyqvwDUSVEXC_gJ-179" target="4vMNkpyqvwDUSVEXC_gJ-178" edge="1">
          <mxGeometry width="50" height="50" relative="1" as="geometry">
            <mxPoint x="418" y="-192" as="sourcePoint" />
            <mxPoint x="450" y="-136" as="targetPoint" />
          </mxGeometry>
        </mxCell>
        <mxCell id="4vMNkpyqvwDUSVEXC_gJ-181" value="tag_id(FK)" style="ellipse;whiteSpace=wrap;html=1;align=center;" parent="1" vertex="1">
          <mxGeometry x="580" y="-180" width="100" height="40" as="geometry" />
        </mxCell>
        <mxCell id="4vMNkpyqvwDUSVEXC_gJ-182" value="" style="endArrow=none;html=1;rounded=0;exitX=1;exitY=0.5;exitDx=0;exitDy=0;entryX=0;entryY=0.5;entryDx=0;entryDy=0;" parent="1" source="4vMNkpyqvwDUSVEXC_gJ-178" target="4vMNkpyqvwDUSVEXC_gJ-181" edge="1">
          <mxGeometry width="50" height="50" relative="1" as="geometry">
            <mxPoint x="405" y="-170" as="sourcePoint" />
            <mxPoint x="430" y="-164" as="targetPoint" />
          </mxGeometry>
        </mxCell>
        <mxCell id="4vMNkpyqvwDUSVEXC_gJ-183" value="" style="endArrow=none;html=1;rounded=0;strokeColor=default;align=center;verticalAlign=middle;fontFamily=Helvetica;fontSize=11;fontColor=default;labelBackgroundColor=default;edgeStyle=orthogonalEdgeStyle;exitX=0.5;exitY=1;exitDx=0;exitDy=0;entryX=0.5;entryY=0;entryDx=0;entryDy=0;" parent="1" source="4vMNkpyqvwDUSVEXC_gJ-187" target="4vMNkpyqvwDUSVEXC_gJ-31" edge="1">
          <mxGeometry relative="1" as="geometry">
            <mxPoint x="415" y="-70" as="sourcePoint" />
            <mxPoint x="575" y="-70" as="targetPoint" />
            <Array as="points">
              <mxPoint x="520" y="130" />
            </Array>
          </mxGeometry>
        </mxCell>
        <mxCell id="4vMNkpyqvwDUSVEXC_gJ-188" value="" style="endArrow=none;html=1;rounded=0;strokeColor=default;align=center;verticalAlign=middle;fontFamily=Helvetica;fontSize=11;fontColor=default;labelBackgroundColor=default;edgeStyle=orthogonalEdgeStyle;exitX=0.425;exitY=1.05;exitDx=0;exitDy=0;exitPerimeter=0;entryX=0.5;entryY=0;entryDx=0;entryDy=0;" parent="1" source="4vMNkpyqvwDUSVEXC_gJ-178" target="4vMNkpyqvwDUSVEXC_gJ-187" edge="1">
          <mxGeometry relative="1" as="geometry">
            <mxPoint x="471" y="-127" as="sourcePoint" />
            <mxPoint x="525" y="130" as="targetPoint" />
          </mxGeometry>
        </mxCell>
        <mxCell id="4vMNkpyqvwDUSVEXC_gJ-187" value="with" style="shape=rhombus;perimeter=rhombusPerimeter;whiteSpace=wrap;html=1;align=center;" parent="1" vertex="1">
          <mxGeometry x="460" y="-60" width="120" height="60" as="geometry" />
        </mxCell>
        <mxCell id="4vMNkpyqvwDUSVEXC_gJ-190" value="1" style="text;html=1;align=center;verticalAlign=middle;resizable=0;points=[];autosize=1;strokeColor=none;fillColor=none;fontFamily=Helvetica;fontSize=11;fontColor=default;labelBackgroundColor=default;" parent="1" vertex="1">
          <mxGeometry x="515" y="100" width="30" height="30" as="geometry" />
        </mxCell>
        <mxCell id="4vMNkpyqvwDUSVEXC_gJ-193" value="&lt;div&gt;n&lt;/div&gt;" style="text;html=1;align=center;verticalAlign=middle;resizable=0;points=[];autosize=1;strokeColor=none;fillColor=none;fontFamily=Helvetica;fontSize=11;fontColor=default;labelBackgroundColor=default;" parent="1" vertex="1">
          <mxGeometry x="465" y="-130" width="30" height="30" as="geometry" />
        </mxCell>
        <mxCell id="4vMNkpyqvwDUSVEXC_gJ-194" value="with" style="shape=rhombus;perimeter=rhombusPerimeter;whiteSpace=wrap;html=1;align=center;" parent="1" vertex="1">
          <mxGeometry x="420" y="-300" width="120" height="60" as="geometry" />
        </mxCell>
        <mxCell id="4vMNkpyqvwDUSVEXC_gJ-196" value="" style="endArrow=none;html=1;rounded=0;strokeColor=default;align=center;verticalAlign=middle;fontFamily=Helvetica;fontSize=11;fontColor=default;labelBackgroundColor=default;edgeStyle=orthogonalEdgeStyle;entryX=0.5;entryY=0;entryDx=0;entryDy=0;" parent="1" target="4vMNkpyqvwDUSVEXC_gJ-194" edge="1">
          <mxGeometry width="50" height="50" relative="1" as="geometry">
            <mxPoint x="480" y="-350" as="sourcePoint" />
            <mxPoint x="480" y="-310" as="targetPoint" />
            <Array as="points">
              <mxPoint x="480" y="-350" />
            </Array>
          </mxGeometry>
        </mxCell>
        <mxCell id="4vMNkpyqvwDUSVEXC_gJ-197" value="" style="endArrow=none;html=1;rounded=0;strokeColor=default;align=center;verticalAlign=middle;fontFamily=Helvetica;fontSize=11;fontColor=default;labelBackgroundColor=default;edgeStyle=orthogonalEdgeStyle;" parent="1" target="4vMNkpyqvwDUSVEXC_gJ-178" edge="1">
          <mxGeometry width="50" height="50" relative="1" as="geometry">
            <mxPoint x="480" y="-240" as="sourcePoint" />
            <mxPoint x="479.5" y="-190" as="targetPoint" />
            <Array as="points" />
          </mxGeometry>
        </mxCell>
        <mxCell id="4vMNkpyqvwDUSVEXC_gJ-198" value="n" style="text;html=1;align=center;verticalAlign=middle;resizable=0;points=[];autosize=1;strokeColor=none;fillColor=none;fontFamily=Helvetica;fontSize=11;fontColor=default;labelBackgroundColor=default;" parent="1" vertex="1">
          <mxGeometry x="475" y="-220" width="30" height="30" as="geometry" />
        </mxCell>
        <mxCell id="4vMNkpyqvwDUSVEXC_gJ-199" value="1" style="text;html=1;align=center;verticalAlign=middle;resizable=0;points=[];autosize=1;strokeColor=none;fillColor=none;fontFamily=Helvetica;fontSize=11;fontColor=default;labelBackgroundColor=default;" parent="1" vertex="1">
          <mxGeometry x="475" y="-350" width="30" height="30" as="geometry" />
        </mxCell>
        <mxCell id="4vMNkpyqvwDUSVEXC_gJ-200" value="1" style="text;html=1;align=center;verticalAlign=middle;resizable=0;points=[];autosize=1;strokeColor=none;fillColor=none;fontFamily=Helvetica;fontSize=11;fontColor=default;labelBackgroundColor=default;" parent="1" vertex="1">
          <mxGeometry x="875" y="-210" width="30" height="30" as="geometry" />
        </mxCell>
        <mxCell id="4vMNkpyqvwDUSVEXC_gJ-201" value="&lt;div&gt;acceptedAnswer&lt;/div&gt;&lt;div&gt;(FK)&lt;/div&gt;" style="ellipse;whiteSpace=wrap;html=1;align=center;" parent="1" vertex="1">
          <mxGeometry x="400" width="110" height="50" as="geometry" />
        </mxCell>
        <mxCell id="4vMNkpyqvwDUSVEXC_gJ-202" value="" style="endArrow=none;html=1;rounded=0;exitX=0.622;exitY=1.075;exitDx=0;exitDy=0;entryX=0.333;entryY=0.017;entryDx=0;entryDy=0;entryPerimeter=0;exitPerimeter=0;" parent="1" source="4vMNkpyqvwDUSVEXC_gJ-201" target="4vMNkpyqvwDUSVEXC_gJ-31" edge="1">
          <mxGeometry width="50" height="50" relative="1" as="geometry">
            <mxPoint x="460" y="82" as="sourcePoint" />
            <mxPoint x="559" y="135" as="targetPoint" />
          </mxGeometry>
        </mxCell>
        <mxCell id="4vMNkpyqvwDUSVEXC_gJ-203" value="" style="endArrow=none;html=1;rounded=0;entryX=0.7;entryY=0.033;entryDx=0;entryDy=0;entryPerimeter=0;exitX=0.5;exitY=1;exitDx=0;exitDy=0;" parent="1" source="4vMNkpyqvwDUSVEXC_gJ-204" target="4vMNkpyqvwDUSVEXC_gJ-31" edge="1">
          <mxGeometry width="50" height="50" relative="1" as="geometry">
            <mxPoint x="560" y="70" as="sourcePoint" />
            <mxPoint x="507" y="150" as="targetPoint" />
          </mxGeometry>
        </mxCell>
        <mxCell id="4vMNkpyqvwDUSVEXC_gJ-204" value="&lt;div&gt;parentQuestionId&lt;/div&gt;&lt;div&gt;(FK)&lt;/div&gt;" style="ellipse;whiteSpace=wrap;html=1;align=center;" parent="1" vertex="1">
          <mxGeometry x="545" y="-10" width="105" height="55" as="geometry" />
        </mxCell>
        <mxCell id="4vMNkpyqvwDUSVEXC_gJ-212" value="n" style="text;html=1;align=center;verticalAlign=middle;resizable=0;points=[];autosize=1;strokeColor=none;fillColor=none;fontFamily=Helvetica;fontSize=11;fontColor=default;labelBackgroundColor=default;rotation=0;" parent="1" vertex="1">
          <mxGeometry x="582.5" y="175" width="30" height="30" as="geometry" />
        </mxCell>
        <mxCell id="4vMNkpyqvwDUSVEXC_gJ-217" value="" style="endArrow=none;html=1;rounded=0;strokeColor=default;align=center;verticalAlign=middle;fontFamily=Helvetica;fontSize=11;fontColor=default;labelBackgroundColor=default;edgeStyle=orthogonalEdgeStyle;exitX=0.986;exitY=0.897;exitDx=0;exitDy=0;exitPerimeter=0;" parent="1" source="4vMNkpyqvwDUSVEXC_gJ-31" edge="1">
          <mxGeometry width="50" height="50" relative="1" as="geometry">
            <mxPoint x="605.5" y="197" as="sourcePoint" />
            <mxPoint x="630" y="157" as="targetPoint" />
            <Array as="points">
              <mxPoint x="611" y="184" />
              <mxPoint x="611" y="208" />
              <mxPoint x="630" y="208" />
            </Array>
          </mxGeometry>
        </mxCell>
        <mxCell id="4vMNkpyqvwDUSVEXC_gJ-218" value="role" style="rounded=0;whiteSpace=wrap;html=1;" parent="1" vertex="1">
          <mxGeometry x="-110" y="-210" width="120" height="60" as="geometry" />
        </mxCell>
        <mxCell id="4vMNkpyqvwDUSVEXC_gJ-219" value="roleId" style="ellipse;whiteSpace=wrap;html=1;align=center;" parent="1" vertex="1">
          <mxGeometry x="-170" y="-306" width="100" height="40" as="geometry" />
        </mxCell>
        <mxCell id="4vMNkpyqvwDUSVEXC_gJ-220" value="" style="endArrow=none;html=1;rounded=0;entryX=0.317;entryY=0;entryDx=0;entryDy=0;entryPerimeter=0;" parent="1" source="4vMNkpyqvwDUSVEXC_gJ-219" target="4vMNkpyqvwDUSVEXC_gJ-218" edge="1">
          <mxGeometry width="50" height="50" relative="1" as="geometry">
            <mxPoint x="-40.5" y="-256" as="sourcePoint" />
            <mxPoint x="-85" y="-220" as="targetPoint" />
          </mxGeometry>
        </mxCell>
        <mxCell id="4vMNkpyqvwDUSVEXC_gJ-221" value="roleName" style="ellipse;whiteSpace=wrap;html=1;align=center;" parent="1" vertex="1">
          <mxGeometry x="-50" y="-306" width="100" height="40" as="geometry" />
        </mxCell>
        <mxCell id="4vMNkpyqvwDUSVEXC_gJ-222" value="" style="endArrow=none;html=1;rounded=0;entryX=0.75;entryY=0;entryDx=0;entryDy=0;" parent="1" source="4vMNkpyqvwDUSVEXC_gJ-221" target="4vMNkpyqvwDUSVEXC_gJ-218" edge="1">
          <mxGeometry width="50" height="50" relative="1" as="geometry">
            <mxPoint x="79.5" y="-256" as="sourcePoint" />
            <mxPoint x="35" y="-220" as="targetPoint" />
          </mxGeometry>
        </mxCell>
        <mxCell id="4vMNkpyqvwDUSVEXC_gJ-223" value="roleId(FK)" style="ellipse;whiteSpace=wrap;html=1;align=center;" parent="1" vertex="1">
          <mxGeometry x="-220" y="82" width="100" height="40" as="geometry" />
        </mxCell>
        <mxCell id="4vMNkpyqvwDUSVEXC_gJ-224" value="" style="endArrow=none;html=1;rounded=0;entryX=0;entryY=0.25;entryDx=0;entryDy=0;" parent="1" source="4vMNkpyqvwDUSVEXC_gJ-223" target="4vMNkpyqvwDUSVEXC_gJ-4" edge="1">
          <mxGeometry width="50" height="50" relative="1" as="geometry">
            <mxPoint x="-90.5" y="132" as="sourcePoint" />
            <mxPoint x="-135" y="168" as="targetPoint" />
          </mxGeometry>
        </mxCell>
        <mxCell id="4vMNkpyqvwDUSVEXC_gJ-234" value="of" style="shape=rhombus;perimeter=rhombusPerimeter;whiteSpace=wrap;html=1;align=center;" parent="1" vertex="1">
          <mxGeometry x="-80" y="-80" width="120" height="60" as="geometry" />
        </mxCell>
        <mxCell id="4vMNkpyqvwDUSVEXC_gJ-236" value="" style="endArrow=none;html=1;rounded=0;strokeColor=default;align=center;verticalAlign=middle;fontFamily=Helvetica;fontSize=11;fontColor=default;labelBackgroundColor=default;edgeStyle=orthogonalEdgeStyle;exitX=0.442;exitY=0;exitDx=0;exitDy=0;exitPerimeter=0;" parent="1" source="4vMNkpyqvwDUSVEXC_gJ-4" edge="1">
          <mxGeometry width="50" height="50" relative="1" as="geometry">
            <mxPoint x="-70" y="30" as="sourcePoint" />
            <mxPoint x="-20" y="-20" as="targetPoint" />
          </mxGeometry>
        </mxCell>
        <mxCell id="4vMNkpyqvwDUSVEXC_gJ-237" value="" style="endArrow=none;html=1;rounded=0;strokeColor=default;align=center;verticalAlign=middle;fontFamily=Helvetica;fontSize=11;fontColor=default;labelBackgroundColor=default;edgeStyle=orthogonalEdgeStyle;entryX=0.583;entryY=1;entryDx=0;entryDy=0;entryPerimeter=0;exitX=0.5;exitY=0;exitDx=0;exitDy=0;" parent="1" source="4vMNkpyqvwDUSVEXC_gJ-234" target="4vMNkpyqvwDUSVEXC_gJ-218" edge="1">
          <mxGeometry width="50" height="50" relative="1" as="geometry">
            <mxPoint x="-90" y="-90" as="sourcePoint" />
            <mxPoint x="-40" y="-140" as="targetPoint" />
          </mxGeometry>
        </mxCell>
        <mxCell id="4vMNkpyqvwDUSVEXC_gJ-238" value="n" style="text;html=1;align=center;verticalAlign=middle;resizable=0;points=[];autosize=1;strokeColor=none;fillColor=none;fontFamily=Helvetica;fontSize=11;fontColor=default;labelBackgroundColor=default;" parent="1" vertex="1">
          <mxGeometry x="-5" y="87" width="30" height="30" as="geometry" />
        </mxCell>
        <mxCell id="4vMNkpyqvwDUSVEXC_gJ-239" value="1" style="text;html=1;align=center;verticalAlign=middle;resizable=0;points=[];autosize=1;strokeColor=none;fillColor=none;fontFamily=Helvetica;fontSize=11;fontColor=default;labelBackgroundColor=default;" parent="1" vertex="1">
          <mxGeometry x="-40" y="-150" width="30" height="30" as="geometry" />
        </mxCell>
      </root>
    </mxGraphModel>
  </diagram>
</mxfile>
